<!--?xml version="1.0" encoding="utf-8"?-->
<!-- Generator: Adobe Illustrator 24.1.1, SVG Export Plug-In . SVG Version: 6.00 Build 0)  -->
<svg version="1.1" id="_x31_0" xmlns="http://www.w3.org/2000/svg" xmlns:xlink="http://www.w3.org/1999/xlink" x="0px" y="0px" viewBox="0 0 512 512" style="width: 256px; height: 256px; opacity: 1;" xml:space="preserve">
<style type="text/css">
	.st0{fill:#374149;}
</style>
<g>
	<path class="st0" d="M76.672,89.547v31.574h358.657V89.547c0-12.301-10.016-22.391-22.317-22.391H99.059
		C86.758,67.156,76.672,77.246,76.672,89.547z M404.582,75.172v40.973h-40.969V75.172H404.582z M148.804,75.172v40.973h-40.972
		V75.172H148.804z" style="fill: rgb(255, 0, 0);"></path>
	<path class="st0" d="M64.922,462.809h148.426h0.75v15.293l-0.004,0.23h0.004v0.16h83.878v-15.683h149.168
		c12.02,0,21.836-9.746,21.836-21.766v-148.91l0.039-37.867c1.782,0.477,3.633,0.758,5.55,0.758h11.75
		c11.953,0,21.695-9.675,21.695-21.699v-56.102c0-11.953-9.742-21.695-21.695-21.695h-1.035c0,0-0.832-23.144-2.211-31.16
		l-0.554-3.386l-13.539-2.141V86.09c0-37.035-30.129-67.09-67.16-67.09h-77.453c-4.766-11.191-15.821-19-28.672-19h-79.321
		c-12.851,0-23.902,7.809-28.672,19H110.18c-36.965,0-67.086,30.054-67.086,67.09v32.75l-13.614,2.141l-0.554,3.386
		c-1.379,8.016-2.207,31.16-2.207,31.16H25.68c-11.953,0-21.695,9.742-21.695,21.695v56.102c0,12.024,9.742,21.699,21.695,21.699
		h11.75c1.742,0,3.465-0.289,5.109-0.687c0.196-0.031,0.36-0.023,0.555-0.058v186.766C43.094,453.062,52.902,462.809,64.922,462.809
		z M17.735,177.222c0-4.422,3.594-7.945,7.945-7.945h1.867l-0.07,28.882c0,0.828,0.691,1.45,1.52,1.45h4.148
		c0.758,0,1.45-0.622,1.45-1.45v-28.882h2.836c2.206,0,4.281,0.898,5.664,2.347c1.449,1.454,2.281,3.387,2.281,5.598v56.102
		c0,2.215-0.832,4.149-2.281,5.598c-1.383,1.52-3.458,2.418-5.664,2.418H25.68c-4.351,0-7.945-3.59-7.945-8.016V177.222z
		 M43.094,150.645l-0.043,5.637c-1.785-0.477-3.703-0.754-5.621-0.754h-0.766c0,0,0.418-19.898,1.382-26.187l5.047-0.758V150.645z
		 M221.004,471.582v-8.774v-20.73v-6.012h70.063v6.012v20.73v8.774h-70.008H221.004z M362.84,362.363l-10.699,38.719H159.926
		l-10.707-38.762h169.726L362.84,362.363z M429.516,371.55l-4.41,17.371h-41.562l-9.973-0.038l4.481-17.371h41.106L429.516,371.55z
		 M373.57,423.914l4.481-17.305h41.614l9.851,0.039l-4.41,17.304h-41.816L373.57,423.914z M86.968,423.953l-4.496-17.343h51.543
		l3.59,13.847l0.863,3.496H86.968z M86.968,388.922l-4.496-17.41h51.543l3.598,13.934l0.855,3.476H86.968z M401.82,39.726
		c25.566,0,46.43,20.867,46.43,46.363v266.879v1.477h-83.258H147.074H63.82V86.09c0-25.496,20.867-46.363,46.359-46.363h95.762
		v-0.41h38.516l61.668,0.254l0,0v0.156H401.82z M205.941,31.16c0-5.73,4.629-10.434,10.434-10.434h79.321
		c5.801,0,10.43,4.703,10.43,10.434v1.383H206.7h-0.758V31.16z M484.524,198.16l-0.07-28.882h1.867c4.351,0,7.946,3.523,7.946,7.945
		v56.102c0,4.426-3.594,8.016-7.946,8.016h-11.75c-2.206,0-4.14-0.898-5.59-2.278c-1.453-1.453-2.351-3.523-2.351-5.738v-56.102
		c0-2.21,0.898-4.285,2.351-5.734c1.45-1.382,3.383-2.21,5.59-2.21h2.836v28.882c0,0.828,0.692,1.45,1.45,1.45h4.148
		C483.832,199.61,484.524,198.988,484.524,198.16z M474.57,155.527c-1.758,0-3.445,0.286-5.094,0.691
		c-0.175,0.032-0.32,0.024-0.496,0.055v-27.691l4.973,0.758c0.969,6.289,1.382,26.187,1.382,26.187H474.57z" style="fill: rgb(255, 0, 0);"></path>
	<path class="st0" d="M76.672,299.446h358.657V137.012H76.672V299.446z M394.055,162.742c-0.094,0.418-0.184,0.84-0.363,1.254
		l-47.422,110.09c-1.074,2.493-3.527,4.11-6.242,4.11h-27.664c-0.446,0-0.863-0.086-1.282-0.164
		c-0.289-0.058-0.57-0.125-0.851-0.214c-0.786-0.262-1.489-0.657-2.11-1.157c-0.234-0.187-0.45-0.386-0.66-0.606
		c-0.555-0.586-1-1.262-1.321-2.007c-0.113-0.274-0.206-0.547-0.289-0.832c-0.218-0.77-0.301-1.582-0.226-2.414
		c0.023-0.282,0.074-0.558,0.133-0.836c0.094-0.422,0.183-0.844,0.363-1.258l46.461-107.859c1.656-3.844,5.442-6.336,9.633-6.336
		h25.234c0.45,0,0.867,0.082,1.286,0.164c0.289,0.054,0.57,0.121,0.843,0.21c0.79,0.262,1.496,0.657,2.118,1.161
		c0.23,0.187,0.445,0.382,0.652,0.598c0.554,0.59,1,1.266,1.32,2.011c0.118,0.274,0.215,0.551,0.294,0.836
		c0.218,0.77,0.301,1.578,0.226,2.406C394.164,162.183,394.113,162.461,394.055,162.742z M225.508,269.554l47.946-111.304
		c0.977-2.27,3.211-3.738,5.683-3.738h48.699c4.45,0,7.446,4.55,5.688,8.637l-47.95,111.304c-0.976,2.27-3.21,3.742-5.683,3.742
		h-48.695C226.746,278.195,223.75,273.641,225.508,269.554z" style="fill: rgb(255, 0, 0);"></path>
	<path class="st0" d="M215.891,320.035h-47.188c-0.691,0-1.316,0.484-1.316,1.11v10.152c0,0.554,0.625,1.11,1.316,1.11h47.188
		c0.691,0,1.312-0.555,1.312-1.11v-10.152C217.203,320.519,216.582,320.035,215.891,320.035z" style="fill: rgb(255, 0, 0);"></path>
	<path class="st0" d="M343.368,320.035h-47.192c-0.691,0-1.312,0.484-1.312,1.11v10.152c0,0.554,0.621,1.11,1.312,1.11h47.192
		c0.691,0,1.312-0.555,1.312-1.11v-10.152C344.68,320.519,344.059,320.035,343.368,320.035z" style="fill: rgb(255, 0, 0);"></path>
	<path class="st0" d="M84.719,471.582h-0.16v28.742C84.633,506.75,89.812,512,96.238,512h35.86c6.426,0,11.675-5.25,11.675-11.676
		v-28.742H84.899H84.719L84.719,471.582z" style="fill: rgb(255, 0, 0);"></path>
	<path class="st0" d="M368.387,471.582h-0.16v28.742c0.066,6.426,5.25,11.676,11.675,11.676h35.86
		c6.426,0,11.675-5.25,11.675-11.676v-28.742h-58.87H368.387L368.387,471.582z" style="fill: rgb(255, 0, 0);"></path>
</g>
</svg>
